# xmcd
#
# Track frame offsets:
#	187
#	1220
#	6400
#	39040
#	41412
#	46625
#	76237
#	78605
#	83832
#	113315
#	116772
#	121977
#	147652
#	149637
#	154815
#	177752
#	180147
#	185435
#	209372
#	211695
#	216897
#	242712
#	245122
#	250300
#	278782
#
# Disc length: 3774 seconds
#
# Revision: 1
# Processed by: cddbd v1.5.1PL0 Copyright (c) Steve Scherf et al.
# Submitted via: CDex 1.50Beta5
#
DISCID=4f0ebc19
DTITLE=青空少女隊 - 青空少女隊 Special 羽田・三鷹の青空道中
DYEAR=1900
DGENRE=Soundtrack
TTITLE0=オープニング・ナレーション
TTITLE1=第１の基地「千歳」オープニング・テーマ＆タイトルコール
TTITLE2=ドラマ
TTITLE3=エンディング・クレジット
TTITLE4=第２の基地「三沢」 オープニング・テーマ＆タイトルコール
TTITLE5=ドラマ
TTITLE6=エンディング・クレジット
TTITLE7=第３の基地「松島」オープニング・テーマ＆クレジット
TTITLE8=ドラマ
TTITLE9=エンディング・クレジット
TTITLE10=第４の基地「小松」オープニング・テーマ＆ナレーション
TTITLE11=ドラマ
TTITLE12=エンディング・クレジット
TTITLE13=第５の基地「浜松」オープニング・テーマ＆タイトルコール
TTITLE14=ドラマ
TTITLE15=エンディング・クレジット
TTITLE16=第６の基地「築城」オープニング・テーマ＆クレジット
TTITLE17=ドラマ
TTITLE18=エンディング・クレジット
TTITLE19=第７の基地「新田原」オープニング・テーマ＆クレジット
TTITLE20=ドラマ
TTITLE21=エンディング・クレジット
TTITLE22=第８の基地「那覇」オープニング・テーマ＆クレジット
TTITLE23=ドラマ
TTITLE24=エンディング・クレジット
EXTD=
EXTT0=
EXTT1=
EXTT2=
EXTT3=
EXTT4=
EXTT5=
EXTT6=
EXTT7=
EXTT8=
EXTT9=
EXTT10=
EXTT11=
EXTT12=
EXTT13=
EXTT14=
EXTT15=
EXTT16=
EXTT17=
EXTT18=
EXTT19=
EXTT20=
EXTT21=
EXTT22=
EXTT23=
EXTT24=
PLAYORDER=
